# File created by Blade
# Date/Time:  Wed Jan 21 19:13:57 2015
# Frame Rate: 120.000 fps
#------------------------------------------------------
:FULLY-SPECIFIED
:DEGREES
941
root -2.114602 33.318218 0.404311 49.380381 25.234769 -0.112348
RightUpLeg -50.202019 0.189517 -6.833422
RightLeg 13.737460 -0.000000 -0.000000
RightFoot -1.628185 8.312966 16.208694
RightToeBase 2.961524 -0.000000 -0.000000
LeftUpLeg -47.038356 -1.805755 2.929305
LeftLeg 13.745213 -0.000000 -0.000000
LeftFoot -5.701110 -4.947395 -6.988859
LeftToeBase -3.345603 -0.000000 0.000000
Spine -45.763124 -4.991819 3.923991
RightShoulder -15.929815 5.162067 -25.986052
RightArm -9.498488 -46.766679 107.966682
RightForeArm 14.320736 -0.000000 20.968399
RightHand 11.061921 -0.000000 3.030010
RightHandThumb1 -24.326973 -0.000000 -32.862282
LeftShoulder -4.726829 8.067925 21.855862
LeftArm 16.159692 42.879022 -94.160313
LeftForeArm 10.595590 -0.000000 18.759979
LeftHand -14.830082 0.000000 -3.887207
LeftHandThumb1 -26.253704 0.000000 33.147579
Head -12.766882 -5.748938 12.717357
942
root -2.083548 33.383378 0.372938 49.294496 23.920239 -0.249622
RightUpLeg -50.135333 0.688201 -7.065865
RightLeg 13.134372 -0.000000 -0.000000
RightFoot -1.114187 7.539324 15.345170
RightToeBase 2.877879 -0.000000 -0.000000
LeftUpLeg -46.917576 -1.545408 2.932304
LeftLeg 13.682969 -0.000000 -0.000000
LeftFoot -4.818271 -5.458736 -6.614852
LeftToeBase -4.179586 -0.000000 0.000000
Spine -45.853662 -4.786076 3.674683
RightShoulder -15.832541 5.255207 -25.870014
RightArm -9.375827 -46.994142 108.078443
RightForeArm 14.381163 -0.000000 20.177970
RightHand 11.142465 -0.000000 2.972913
RightHandThumb1 -24.326973 -0.000000 -32.862282
LeftShoulder -4.669572 8.141696 21.963388
LeftArm 16.189567 42.637255 -93.808405
LeftForeArm 10.177505 0.000000 18.778444
LeftHand -15.057178 -0.000000 -2.676353
LeftHandThumb1 -26.253704 0.000000 33.147579
Head -12.485670 -5.493028 12.667270
943
root -2.052965 33.446886 0.341328 49.161006 22.659027 -0.456969
RightUpLeg -50.006469 1.132955 -7.108393
RightLeg 12.532980 -0.000000 -0.000000
RightFoot -0.712089 6.725359 14.507345
RightToeBase 3.344214 -0.000000 -0.000000
LeftUpLeg -46.769483 -1.251893 2.956336
LeftLeg 13.604084 -0.000000 -0.000000
LeftFoot -4.123905 -6.005757 -6.591672
LeftToeBase -4.412592 -0.000000 0.000000
Spine -45.897663 -4.555787 3.532363
RightShoulder -15.772617 5.357001 -25.793711
RightArm -9.266971 -47.495110 108.228029
RightForeArm 14.655937 -0.000000 19.462292
RightHand 11.132350 -0.000000 3.003854
RightHandThumb1 -24.326973 -0.000000 -32.862282
LeftShoulder -4.701120 8.301248 22.030054
LeftArm 16.366838 42.590075 -93.282222
LeftForeArm 9.671466 -0.000000 18.886835
LeftHand -15.383915 -0.000000 -1.554520
LeftHandThumb1 -26.253704 0.000000 33.147579
Head -12.251830 -5.187644 12.582256
944
root -2.012149 33.507122 0.309252 49.037039 21.401313 -0.609384
RightUpLeg -49.823015 1.360248 -6.970727
RightLeg 11.917204 -0.000000 -0.000000
RightFoot -0.328685 5.892199 13.863333
RightToeBase 3.966119 -0.000000 -0.000000
LeftUpLeg -46.545616 -1.084495 2.950217
LeftLeg 13.422234 -0.000000 -0.000000
LeftFoot -3.458036 -6.230204 -6.444377
LeftToeBase -4.737321 -0.000000 0.000000
Spine -45.936751 -4.329864 3.347956
RightShoulder -15.688321 5.454193 -25.735473
RightArm -9.166913 -47.944231 108.406138
RightForeArm 14.877149 -0.000000 18.729975
RightHand 11.177441 -0.000000 2.992333
RightHandThumb1 -24.326973 -0.000000 -32.862282
LeftShoulder -4.699469 8.425075 22.127781
LeftArm 16.351401 42.285946 -93.034067
LeftForeArm 9.446633 -0.000000 18.983772
LeftHand -15.567843 0.000000 -0.395549
LeftHandThumb1 -26.253704 0.000000 33.147579
Head -12.010433 -4.916845 12.495737
945
root -1.975809 33.561658 0.279024 48.911341 20.278762 -0.729911
RightUpLeg -49.574611 1.692298 -6.863497
RightLeg 11.325290 -0.000000 -0.000000
RightFoot -0.156720 4.538037 13.280203
RightToeBase 4.432234 -0.000000 -0.000000
LeftUpLeg -46.342584 -1.037622 2.996054
LeftLeg 13.280241 -0.000000 -0.000000
LeftFoot -2.825694 -6.277286 -6.453246
LeftToeBase -5.156547 -0.000000 0.000000
Spine -45.969043 -4.189894 3.230860
RightShoulder -15.589336 5.564879 -25.711458
RightArm -9.121966 -48.386235 108.642869
RightForeArm 15.197020 -0.000000 18.049577
RightHand 11.199882 0.000000 3.103997
RightHandThumb1 -24.326973 -0.000000 -32.862282
LeftShoulder -4.673359 8.472502 22.251818
LeftArm 16.241914 41.940571 -92.874352
LeftForeArm 9.264071 -0.000000 19.080636
LeftHand -15.710512 0.000000 0.479372
LeftHandThumb1 -26.253704 0.000000 33.147579
Head -11.760153 -4.672393 12.378837
